<?xml version="1.0" encoding="utf-8"?>
<svg viewBox="0 0 642.6 1386.5" width="642.6px" height="1386.5px" xmlns="http://www.w3.org/2000/svg">
  <defs/>
  <rect width="642.599" height="1386.534" style="stroke: rgb(0, 0, 0); stroke-width: 0px; fill: rgb(77, 176, 71);"/>
  <g transform="matrix(5.015633, 0, 0, 5.015633, 823.814453, -696.578247)" style="">
    <title>Flower</title>
    <path style="stroke: rgb(0, 0, 0); stroke-opacity: 0; fill: rgb(24, 58, 22);" d="M -109.499 400.899 C -108.975 399.629 -107.316 239.455 -107.316 239.455 L -111.955 239.084 C -111.955 239.084 -115.133 399.865 -114.278 400.924 C -113.277 402.164 -110.106 402.372 -109.499 400.899 Z"/>
    <path style="stroke: rgb(0, 0, 0); stroke-opacity: 0; fill: rgb(24, 58, 22);" d="M -86.879 184.483 C -88.819 181.219 -76.595 175.841 -71.633 171.034 C -66.909 166.457 -57.524 160.591 -59.351 156.415 C -60.8 153.102 -70.687 153.568 -77.36 153.858 C -83.222 154.113 -87.362 155.553 -92.091 159.027 C -96.918 162.573 -101.329 175.752 -104.752 175.541 C -108.6 175.303 -111.23 163.097 -116.22 159.212 C -120.438 155.928 -124.016 153.134 -129.248 154.23 C -133.999 155.225 -136.678 157.957 -137.443 162.751 C -138.648 170.301 -134.504 176.895 -131.145 184.044 C -128.789 189.059 -123.112 194.166 -125.076 197.032 C -126.663 199.348 -129.878 195.762 -134.141 194.679 C -138.082 193.677 -141.962 193.065 -143.435 193.971 C -146.772 196.024 -151.472 199.03 -152.741 202.737 C -155.215 209.964 -154.701 212.96 -151.649 219.962 C -148.93 226.2 -149.091 242.237 -141.051 242.722 C -134.144 243.138 -131.265 232.98 -127.924 226.921 C -125.204 221.988 -122.848 217.652 -119.851 218.341 C -117.312 218.924 -119.136 225.436 -117.106 231.27 C -115.237 236.644 -115.772 240.852 -111.325 244.401 C -108.991 246.264 -103.877 248.134 -101.557 246.254 C -97.36 242.854 -100.081 235.131 -100.288 229.734 C -100.386 227.174 -103.533 220.545 -104.138 216.808 C -104.912 212.025 -104.317 209.987 -102.025 210.332 C -98.879 210.806 -96.645 223.686 -92.369 230.625 C -89.333 235.552 -85.418 240.139 -79.566 241.704 C -73.714 243.269 -67.218 243.501 -61.407 241.098 C -55.747 238.757 -51.122 233.976 -47.868 228.787 C -43.973 222.576 -43.037 215.414 -42.748 208.089 C -42.526 202.451 -44.465 196.605 -46.271 192.093 C -48.077 187.581 -52.629 183.593 -57.481 181.707 C -67.543 177.796 -84.498 188.49 -86.879 184.483 Z"/>
  </g>
</svg>